<svg width="520" height="500" viewBox="0 0 520 500" fill="none" xmlns="http://www.w3.org/2000/svg">
<rect width="500" height="500" rx="8" fill="#151515"/>
<path d="M207.379 86.5249C209.191 79.304 219.018 78.2551 222.313 84.9311L266.649 174.77C268.392 178.303 272.448 180.04 276.209 178.865L457.721 122.142C465.967 119.565 471.878 130.079 465.391 135.785L319.896 263.755C317.126 266.192 316.381 270.206 318.093 273.474L382.504 396.479C385.966 403.091 379.291 410.423 372.385 407.594L231.272 349.788C228.458 348.636 225.233 349.178 222.951 351.188L129.803 433.237C123.797 438.528 114.603 432.694 116.832 425.006L146.181 323.789C147.317 319.871 145.324 315.726 141.555 314.168L35.4649 270.296C28.5657 267.443 28.9889 257.531 36.1062 255.276L171.92 212.255C174.566 211.417 176.588 209.267 177.264 206.575L207.379 86.5249Z" fill="#DDDDDD"/>
</svg>
