<!-- Icon by LV - https://github.com/lvamorim -->
<svg width="500" height="500" viewBox="0 0 500 500" fill="none" xmlns="http://www.w3.org/2000/svg">
    <rect width="500" height="500" fill="#151515"/>
    <path d="M233.148 334.134L165.594 306.694L135.185 421L233.148 334.134Z" fill="#FDFDFD"/>
    <path d="M314.363 262.119L233.148 334.134L383.634 395.261L314.363 262.119Z" fill="#FDFDFD"/>
    <path d="M274.965 186.393L314.363 262.119L469 125L274.965 186.393Z" fill="#FDFDFD"/>
    <path d="M190.487 213.122L165.594 306.694L233.148 334.134L314.363 262.119L274.965 186.393L190.487 213.122Z" fill="#FDFDFD"/>
    <path d="M190.487 213.122L274.965 186.393L223.773 88L190.487 213.122Z" fill="#FDFDFD"/>
    <path d="M165.594 306.694L190.487 213.122L47 258.522L165.594 306.694Z" fill="#FDFDFD"/>
    <path d="M190.487 213.122L165.594 306.694M190.487 213.122L274.965 186.393M190.487 213.122L47 258.522L165.594 306.694M190.487 213.122L223.773 88L274.965 186.393M165.594 306.694L233.148 334.134M165.594 306.694L135.185 421L233.148 334.134M233.148 334.134L314.363 262.119M233.148 334.134L383.634 395.261L314.363 262.119M314.363 262.119L274.965 186.393M314.363 262.119L469 125L274.965 186.393" stroke="#FDFDFD" stroke-width="15" stroke-linejoin="round"/>
</svg>
