<?xml version="1.0" encoding="iso-8859-1"?>
<!-- Uploaded to: SVG Repo, www.svgrepo.com, Generator: SVG Repo Mixer Tools -->
<svg fill="#000000" height="800px" width="800px" version="1.1" id="Layer_1" xmlns="http://www.w3.org/2000/svg" xmlns:xlink="http://www.w3.org/1999/xlink" 
	 viewBox="0 0 511.999 511.999" xml:space="preserve">
<g>
	<g>
		<polygon points="392.917,208.521 296.597,304.842 226,305.447 226.605,234.849 252.933,208.521 81.112,208.521 81.112,429.042 
			430.888,429.042 430.888,208.521 		"/>
	</g>
</g>
<g>
	<g>
		<path d="M477.666,127.409h-3.637l-50.695,50.695h37.971v281.355H50.695V178.104H283.35l50.695-50.695H210.262
			c-0.52-25.381-21.314-45.871-46.817-45.871H46.842c-9.057,0-16.425-7.368-16.425-16.424c0-9.057,7.368-16.425,16.425-16.425
			h237.505c25.829,0,46.842-21.013,46.842-46.842h-30.417c0,9.057-7.368,16.425-16.425,16.425H46.842
			C21.013,18.271,0,39.284,0,65.114c0,25.828,21.013,46.841,46.842,46.841h116.601c8.729,0,15.869,6.85,16.376,15.454H34.333
			C15.401,127.409,0,142.811,0,161.742V475.82c0,18.932,15.401,34.333,34.333,34.333h443.333c18.932,0,34.333-15.401,34.333-34.333
			V161.742C511.999,142.81,496.598,127.409,477.666,127.409z"/>
	</g>
</g>
<g>
	<g>
		<path d="M497.287,34.159c-3.603-3.603-8.393-5.588-13.488-5.588c-5.095,0-9.885,1.984-13.487,5.587L256.914,247.557l-0.233,27.209
			l27.209-0.233L497.287,61.134c3.602-3.603,5.587-8.393,5.587-13.488C502.874,42.551,500.89,37.761,497.287,34.159z"/>
	</g>
</g>
</svg>